<?xml version="1.0" encoding="UTF-8" standalone="no"?>
<!DOCTYPE svg PUBLIC "-//W3C//DTD SVG 1.1//EN" "http://www.w3.org/Graphics/SVG/1.1/DTD/svg11.dtd">
<svg width="100%" height="100%" viewBox="0 0 1000 600" version="1.1" xmlns="http://www.w3.org/2000/svg" xmlns:xlink="http://www.w3.org/1999/xlink" xml:space="preserve" xmlns:serif="http://www.serif.com/" style="fill-rule:evenodd;clip-rule:evenodd;stroke-linejoin:round;stroke-miterlimit:2;">
    <rect x="0" y="0" width="1000" height="600" style="fill:rgb(8,6,5);"/>
    <g transform="matrix(-0.0943619,0.278109,-1.36227,-0.462215,477.303,309.741)">
        <path d="M99.981,126.166L122.664,324.084L77.298,324.084L99.981,126.166Z" style="fill:white;"/>
    </g>
    <g transform="matrix(-0.146064,0.254783,-0.930684,-0.53355,454.896,227.154)">
        <path d="M99.981,126.166L122.664,324.084L77.298,324.084L99.981,126.166Z" style="fill:white;"/>
    </g>
    <g transform="matrix(-0.226235,0.18726,-0.305168,-0.368684,410.689,158.976)">
        <path d="M99.981,126.166L122.664,324.084L77.298,324.084L99.981,126.166Z" style="fill:white;"/>
    </g>
    <g transform="matrix(0.0943619,0.278109,1.36227,-0.462215,520.922,318.236)">
        <path d="M99.981,126.166L122.664,324.084L77.298,324.084L99.981,126.166Z" style="fill:white;"/>
    </g>
    <g transform="matrix(0.146064,0.254783,0.930684,-0.53355,543.329,235.649)">
        <path d="M99.981,126.166L122.664,324.084L77.298,324.084L99.981,126.166Z" style="fill:white;"/>
    </g>
    <g transform="matrix(0.226235,0.18726,0.305168,-0.368684,587.536,167.471)">
        <path d="M99.981,126.166L122.664,324.084L77.298,324.084L99.981,126.166Z" style="fill:white;"/>
    </g>
    <g transform="matrix(0.0721743,0,0,0.0721743,500,297.441)">
        <g transform="matrix(1,0,0,1,-2337.5,-3325)">
            <g transform="matrix(4.16667,0,0,4.16667,0,0)">
                <path d="M332.5,1591.4C325.876,1590.01 321.311,1588.59 320,1587.51C316.978,1585.04 308.452,1581.04 306.208,1581.04C300.742,1581.04 293.845,1575.24 291.956,1569.04C291.247,1566.72 290.991,1550.6 291.194,1521.04L291.5,1476.54L293.928,1471.54C296.196,1466.88 298.511,1457.78 301.056,1443.54C302.456,1435.72 304.669,1427.65 306.955,1422.04C307.964,1419.57 309.115,1414.2 309.513,1410.12C309.911,1406.04 310.68,1401.32 311.222,1399.62C311.763,1397.93 312.529,1391.14 312.923,1384.54C313.562,1373.84 313.985,1371.85 316.852,1366.05C319.287,1361.13 320.296,1357.37 321.015,1350.55C321.536,1345.6 322.422,1339.97 322.982,1338.05C323.542,1336.13 324.015,1324.88 324.032,1313.05C324.061,1294.11 324.303,1290.89 326.063,1286.04C329.587,1276.34 330.787,1271.69 331.479,1265.04C331.851,1261.47 332.825,1256.07 333.644,1253.04C334.554,1249.68 335.325,1240.93 335.626,1230.54C336.155,1212.33 337.126,1205.82 340.237,1199.63C341.674,1196.78 342.418,1192.43 343.006,1183.44C343.449,1176.69 344.133,1170.64 344.527,1170C344.921,1169.36 345.612,1165.56 346.062,1161.54C346.632,1156.45 347.991,1151.9 350.54,1146.53L354.199,1138.82L353.849,1126.65C353.514,1114.98 353.373,1114.3 350.321,1109.52C348.573,1106.78 346.217,1102.18 345.086,1099.3C342.522,1092.75 338.745,1086.94 333.241,1081.08C328.696,1076.24 325.557,1070.36 322.123,1060.28C320.95,1056.83 318.418,1051.77 316.495,1049.04C314.572,1046.3 312.999,1043.66 312.999,1043.16C312.999,1042.66 311.319,1040.78 309.265,1038.97C307.21,1037.17 305.037,1034.76 304.434,1033.62C299.284,1023.87 293.142,1014.03 290.962,1012.04C290.66,1011.77 289.112,1008.94 287.521,1005.75C285.807,1002.32 280.439,995.39 274.346,988.75C268.691,982.587 264.049,976.997 264.032,976.328C264.014,975.66 262.634,973.716 260.966,972.009C259.297,970.302 256.597,966.124 254.966,962.724C253.336,959.325 251.111,955.419 250.023,954.044C248.935,952.669 248.034,951.042 248.022,950.429C248.01,949.816 246.632,947.791 244.96,945.929C241.9,942.522 234.529,928.401 231.447,920.043C228.903,913.146 228.639,909.64 230.405,906.225C231.282,904.53 231.999,901.106 231.999,898.616C231.999,892.639 229.674,891.133 218.802,890.071C212.334,889.439 208.892,888.463 203.223,885.652C199.221,883.667 195.286,882.044 194.479,882.044C191.487,882.044 184.433,873.425 179.746,864.044C177.136,858.819 175,854.065 175,853.481C175,852.896 173.681,851.154 172.068,849.609C170.456,848.064 167.746,844.042 166.047,840.672C162.251,833.139 157.476,826.369 155.042,825.066C152.86,823.897 148.247,815.833 145.02,807.544C143.736,804.244 141.939,800.644 141.027,799.544C137.938,795.817 136.185,792.405 134.578,786.993C133.696,784.025 131.605,779.892 129.931,777.808C128.257,775.725 125.937,770.995 124.777,767.296C121.256,756.081 118.822,752.957 111.158,749.814C97.631,744.268 91.942,736.632 90.468,722.044C89.332,710.808 84.181,704.708 74.001,702.544C68.382,701.35 63.712,698.539 59.187,693.63C54.636,688.693 45.017,674.503 44.976,672.666C44.962,672.049 42.806,668.968 40.186,665.818C37.566,662.669 33.865,657.061 31.962,653.358C30.058,649.655 27.49,645.787 26.254,644.764C25.018,643.741 22.058,639.899 19.676,636.225C17.293,632.551 14.592,628.927 13.673,628.172C12.753,627.418 12.001,626.409 12.001,625.931C12.001,625.453 10.444,623.023 8.541,620.53C0.903,610.523 1.043,598.611 8.896,590.233C10.604,588.412 12.001,586.459 12.001,585.894C12.001,585.33 14.026,582.553 16.501,579.723C18.976,576.894 21.001,574.277 21.001,573.908C21.001,573.539 22.621,570.381 24.6,566.891C26.58,563.4 29.039,557.845 30.064,554.545C32.719,546.004 36.519,540.541 48.219,528.446C53.874,522.601 59.118,517.171 59.872,516.381C60.895,515.31 61.052,513.618 60.489,509.744C58.665,497.189 59.145,493.981 64.355,483.92C67.025,478.764 71.188,472.504 73.605,470.01C76.022,467.516 78,465.02 78,464.463C78,463.906 79.8,461.692 82,459.544C84.2,457.396 86,455.196 86,454.656C86,454.115 86.821,452.744 87.825,451.609C88.828,450.473 90.909,446.663 92.449,443.142C93.989,439.62 97.173,434.22 99.524,431.142C103.707,425.665 110.485,419.045 111.909,419.045C113.594,419.045 117.877,413.162 119.554,408.545C122.203,401.254 126.92,394.354 133.907,387.545C141.512,380.135 143.627,376.84 145.921,368.828C148.238,360.74 151.252,355.175 154.454,353.075C158.317,350.54 163.362,344.072 165.397,339.045C168.252,331.99 168.881,330.765 171.472,327.22C172.808,325.391 174.603,321.566 175.462,318.72C177.151,313.119 181.317,306.563 187.25,300.172C189.312,297.949 191,295.671 191,295.109C191,294.076 197.7,287.196 204.37,281.38C206.366,279.639 207.999,277.586 207.999,276.817C207.999,275.216 212.494,265.608 214.296,263.357C214.958,262.531 217.412,259.713 219.749,257.096C222.087,254.479 223.999,251.888 223.999,251.337C223.999,249.461 240.737,232.045 242.54,232.045C243.143,232.045 245.405,230.447 247.568,228.493C253.833,222.833 261.308,219.685 266.907,220.348C269.482,220.653 272.918,221.565 274.544,222.374C278.325,224.256 281.415,225.131 298.5,229.157C308.765,231.576 313.867,233.322 317.622,235.7C320.439,237.484 324.039,239.244 325.622,239.613C329.089,240.419 336.613,244.597 337.711,246.326C338.964,248.298 348.042,251.856 353.415,252.481C356.118,252.795 360.687,254.288 363.568,255.799C369.166,258.735 377.298,262.785 383,265.478C384.925,266.387 388.597,268.574 391.161,270.338C404.454,279.486 407.237,280.791 415,281.514C419.125,281.898 425.04,282.85 428.144,283.629C431.248,284.408 437.207,285.046 441.385,285.046C448.463,285.046 449.281,285.275 453.375,288.399C455.791,290.243 458.799,292.713 460.06,293.888C461.32,295.062 463.232,296.303 464.309,296.644C465.385,296.986 469.018,299.012 472.382,301.146C475.747,303.28 479.457,305.031 480.627,305.036C483.078,305.047 487.089,306.633 498.999,312.299C503.674,314.523 511.462,317.627 516.305,319.197C521.148,320.768 526.463,322.751 528.115,323.606C529.767,324.46 534.805,326.01 539.309,327.05C553.371,330.297 554.355,330.642 560.201,334.39C563.337,336.401 566.262,338.051 566.701,338.057C567.14,338.063 569.749,339.858 572.499,342.046C575.249,344.234 578.197,346.03 579.049,346.035C579.902,346.041 581.027,346.433 581.549,346.905C582.072,347.377 585.776,348.284 589.782,348.92C595.443,349.819 598.114,350.853 601.782,353.566C604.376,355.485 609.527,359.07 613.228,361.531C616.928,363.992 620.524,366.915 621.218,368.026C621.912,369.137 622.872,370.046 623.352,370.046C624.667,370.046 636.353,379.01 637.499,380.898C638.98,383.339 638.731,407.634 637.163,413.734C636.429,416.588 634.515,420.995 632.909,423.527C630.274,427.682 629.896,429.374 629.043,440.839C628.192,452.267 626.738,459.204 622.919,470.046C621.621,473.732 617.157,482.846 615.817,484.546C610.971,490.694 609.561,492.046 607.993,492.046C606.988,492.046 606.015,492.407 605.832,492.847C604.999,494.849 594.842,499.301 588.219,500.568C581.229,501.906 572.999,505.508 572.999,507.23C572.999,507.679 572.409,508.046 571.687,508.046C570.965,508.046 568.512,508.946 566.235,510.046C562.532,511.835 560.049,512.046 542.684,512.046C519.45,512.046 514.656,512.833 505.499,518.146C498.483,522.217 491.806,525.004 488.999,525.033C488.174,525.041 485.711,526.639 483.526,528.584C481.341,530.529 478.416,532.441 477.026,532.833C475.636,533.225 465.419,533.546 454.321,533.546C431.271,533.546 431.362,533.575 425.333,524.476C418.133,513.61 415.837,511.093 409.792,507.433C406.331,505.337 402.627,502.818 401.561,501.835C400.495,500.851 399.204,500.046 398.693,500.046C396.801,500.046 382.844,484.761 377.77,477.132C376.521,475.254 373.249,472.255 370.499,470.468C364.69,466.691 356.632,458.723 354.739,454.882C353.418,452.201 342.142,443.046 340.161,443.046C339.577,443.046 338.739,442.437 338.299,441.692C337.859,440.947 336.434,439.778 335.132,439.094C333.171,438.064 332.503,438.113 331.232,439.385C328.8,441.816 331.252,457.815 335.164,465.046C337.792,469.902 338.206,471.838 338.708,481.591C339.02,487.665 338.952,495.656 338.557,499.348C337.929,505.208 337.305,506.725 333.634,511.303C331.322,514.186 328.59,518.458 327.563,520.796C326.536,523.133 325.416,525.046 325.074,525.046C324.733,525.046 323.565,526.733 322.478,528.796C321.392,530.858 317.015,536.956 312.751,542.347C308.487,547.737 304.997,552.913 304.994,553.847C304.992,554.781 303.08,557.612 300.744,560.137C297.336,563.824 295.303,565.056 290.433,566.387C287.097,567.299 282.135,568.045 279.406,568.045C274.396,568.045 269.969,570.079 270.033,572.352C270.08,574.052 273.158,577.516 276.041,579.115C281.604,582.199 294.027,585.098 305.834,586.068C312.817,586.641 319.412,587.724 321.034,588.563C322.61,589.378 324.565,590.045 325.378,590.045C326.191,590.045 327.451,590.637 328.178,591.361C328.905,592.084 331.749,593.968 334.499,595.546C337.249,597.125 341.47,599.744 343.878,601.367C346.286,602.99 350.2,604.903 352.574,605.618C357.765,607.18 360.703,608.692 363.36,611.166C366.327,613.931 374.342,617.89 380.261,619.515C383.142,620.306 386.624,621.28 387.999,621.679C389.374,622.078 393.649,624.072 397.499,626.111C403.692,629.391 405.567,629.882 413.761,630.368C420.583,630.772 424.27,631.527 427.757,633.231C433.554,636.065 449.182,651.517 452.134,657.333C453.31,659.65 455.336,662.818 456.635,664.372C457.935,665.927 458.999,667.567 458.999,668.016C458.999,668.465 461.586,671.496 464.749,674.751C470.314,680.478 475.999,689.461 475.999,692.528C475.999,693.351 477.798,696.617 479.997,699.785C482.197,702.953 483.997,706.112 483.997,706.804C483.998,707.496 487.599,712.078 491.999,716.985C496.399,721.892 499.999,726.173 499.999,726.498C499.999,727.272 505.138,735.168 506.747,736.867C507.435,737.594 507.999,738.531 507.999,738.95C507.999,739.369 509.581,741.294 511.514,743.227C513.992,745.706 515.482,748.484 516.564,752.644C518.294,759.296 522.046,763.87 528.314,766.971C533.263,769.42 538.442,776.582 540.169,783.367C541.345,787.987 542.755,789.814 553.243,800.313C559.709,806.785 564.999,812.351 564.999,812.681C564.999,813.011 566.337,814.805 567.973,816.668C569.608,818.53 571.691,822.64 572.602,825.8C574.479,832.311 576.201,835.009 583.995,843.645C587.251,847.252 591.284,853.381 593.868,858.645C596.27,863.54 599.983,869.837 602.118,872.638C604.253,875.438 606,878.378 606,879.17C606,879.962 609.516,884.42 613.814,889.077C622.558,898.553 629.359,907.449 630.424,910.804C630.813,912.03 631.795,913.697 632.606,914.508C633.417,915.319 635.089,917.759 636.322,919.929C637.555,922.1 642.069,927.569 646.354,932.084C654.297,940.454 657.022,945.481 662.366,961.626C663.564,965.247 666.036,968.84 670.961,974.126C676.493,980.062 678.31,982.844 680.054,988.044C681.253,991.619 682.811,995.219 683.517,996.044C686.744,999.816 689.998,1007.2 689.99,1010.74C689.978,1015.64 685.578,1023.3 679.765,1028.54C672.066,1035.49 670.022,1037.04 668.616,1037.04C666.308,1037.04 655.549,1042.14 654.699,1043.64C654.259,1044.41 653.316,1045.04 652.603,1045.04C651.89,1045.04 649.515,1046.96 647.325,1049.29C642.109,1054.86 637.099,1059.06 633.998,1060.46C632.623,1061.08 628.932,1063.27 625.796,1065.32C622.66,1067.37 619.638,1069.05 619.081,1069.05C618.524,1069.05 616.59,1070.34 614.783,1071.93C607.636,1078.2 598.591,1082.43 588.873,1084.05C580.502,1085.45 576.538,1087.17 574.985,1090.07C573.712,1092.45 572.716,1092.04 588.212,1095.46C602.341,1098.58 624.531,1099.1 634.337,1096.54C637.505,1095.72 643.017,1095.04 646.586,1095.04C652.746,1095.04 653.288,1095.24 657.247,1098.93L661.418,1102.83L662.211,1120.68C662.962,1137.58 663.162,1138.87 665.929,1144.54C668.887,1150.61 670.608,1161.18 672.936,1187.56C673.54,1194.42 674.408,1197.9 676.549,1202.06C679.334,1207.48 679.375,1207.82 680.066,1231.54C680.568,1248.76 681.223,1257.18 682.382,1261.34C683.481,1265.29 683.999,1271.21 683.999,1279.84C684,1286.83 684.49,1297.49 685.088,1303.54C685.687,1309.59 686.249,1318.82 686.338,1324.04C686.48,1332.42 686.854,1334.26 689.499,1339.54L692.499,1345.54L692.52,1381.04C692.536,1406.5 692.889,1417.53 693.77,1420.04C694.446,1421.96 694.999,1427.26 694.999,1431.82C694.999,1446.19 699.068,1451.26 703.999,1443.04C705.163,1441.1 705.571,1436.12 705.824,1420.79C706.174,1399.5 705.586,1395.99 699.808,1384.9C697.718,1380.89 697.557,1379.38 697.696,1365.05C697.779,1356.52 698.229,1301.39 698.697,1242.54L699.548,1135.54L701.831,1131.39C704.733,1126.1 709.627,1122.88 719.037,1120.05C727.621,1117.46 735.999,1114 735.999,1113.04C735.999,1112.68 737.236,1111.75 738.749,1110.97C740.261,1110.2 743.456,1107.99 745.848,1106.05C755.916,1097.92 758.999,1094.74 758.999,1092.5C758.999,1089.71 754.4,1085.66 749.325,1083.98C739.839,1080.85 734.031,1076.29 720.048,1060.99C711.608,1051.75 711.297,1051.24 710.633,1045.49C708.968,1031.08 704.756,1015.66 699.847,1006C697.18,1000.75 694.998,995.948 694.998,995.323C694.998,994.697 693.382,991.472 691.407,988.157C688.657,983.541 687.689,980.654 687.273,975.835C686.68,968.962 686.033,967.287 681.946,962.041C679.334,958.689 677.84,953.798 676.449,944.041C676.096,941.566 673.782,935.491 671.308,930.541C666.799,921.521 665.097,917.155 663.055,909.363C662.452,907.065 660.393,902.857 658.479,900.013C656.564,897.168 654.998,894.217 654.998,893.455C654.998,892.693 653.357,889.026 651.352,885.305C649.347,881.585 647.13,877.416 646.426,876.041C645.722,874.666 644.479,870.276 643.663,866.285C642.204,859.145 638.666,851.671 635.502,849.045C634.616,848.309 632.033,844.52 629.761,840.624C626.634,835.262 621.182,829.149 607.314,815.463C597.24,805.52 588.986,796.745 588.973,795.963C588.922,793.058 581.899,785.079 574.472,779.489C570.258,776.318 566.304,772.557 565.686,771.132C564.333,768.015 559.989,761.056 558.25,759.22C557.561,758.493 556.998,757.296 556.998,756.561C556.998,755.825 553.824,751.919 549.945,747.882C546.066,743.845 541.102,738.682 538.912,736.41C536.723,734.138 533.872,730.088 532.575,727.41C531.279,724.732 528.826,720.966 527.124,719.041C525.422,717.116 524.022,714.942 524.014,714.209C523.993,712.454 518.402,705.529 508.46,694.942C501.421,687.447 500.226,685.639 499.155,680.852C498.289,676.984 498.227,674.569 498.944,672.683C500.287,669.152 504.348,667.606 508.416,669.077C510.111,669.69 515.847,670.585 521.163,671.067C526.479,671.548 533.519,672.639 536.807,673.492C540.54,674.459 547.241,675.049 554.642,675.062C567.214,675.084 573.872,676.216 585.998,680.395C594.914,683.467 611.337,687.034 616.686,687.059C619.004,687.07 622.597,688.234 625.854,690.03C630.676,692.688 634.504,693.725 646.147,695.529C648.154,695.839 652.671,697.62 656.186,699.485C663.014,703.108 677.98,707.505 686.998,708.538C695.547,709.516 702.134,711.13 706.458,713.304C708.636,714.4 714.036,716.094 718.458,717.07C734.589,720.629 734.13,720.394 745.498,730.919C747.698,732.956 751.748,736.158 754.498,738.034C757.248,739.91 760.093,742.029 760.819,742.743C761.546,743.457 762.489,744.04 762.914,744.04C763.34,744.04 767.236,747.528 771.572,751.79C775.909,756.053 780.184,759.99 781.074,760.54C798.313,771.199 802.346,775.159 809.583,788.54C810.178,789.64 813.254,791.89 816.418,793.54C819.582,795.19 824.494,798.979 827.335,801.96C839.304,814.523 841.807,816.752 844.581,817.321C848.276,818.079 856.441,825.77 858.319,830.263C860.667,835.883 865.793,841.04 869.031,841.04C872.422,841.04 874.149,839.429 879.212,831.54C883.111,825.465 892.042,817.04 894.583,817.04C896.443,817.04 905.999,811.109 905.999,809.955C905.999,809.452 906.476,809.04 907.059,809.04C907.643,809.04 911.72,805.44 916.12,801.04C920.52,796.64 924.615,793.04 925.22,793.04C927.139,793.04 938.819,784.624 939.794,782.539C941.383,779.14 951.097,768.04 952.483,768.04C956.556,768.04 967.999,758.16 967.999,754.642C967.999,752.599 972.852,748.244 976.454,747.055C978.403,746.412 979.999,745.47 979.999,744.963C979.999,744.455 980.786,744.033 981.749,744.024C982.711,744.015 985.074,742.61 986.999,740.902C988.924,739.193 991.448,737.165 992.608,736.395C994.339,735.246 1001,724.237 1001,722.526C1001,721.656 998.458,722.014 995.57,723.291C985.971,727.534 982.443,729.779 981.032,732.541C980.189,734.191 979.274,735.766 978.999,736.041C978.724,736.316 977.407,738.116 976.073,740.041C974.739,741.966 973.051,743.9 972.323,744.34C971.595,744.78 970.999,745.744 970.999,746.482C970.999,747.32 968.468,748.398 964.249,749.355C953.893,751.703 952.568,752.442 944.252,760.508C939.988,764.643 936.049,768.03 935.499,768.033C932.996,768.051 918.05,778.827 911.169,785.576C906.984,789.682 903.077,793.041 902.487,793.041C901.411,793.041 898.924,795.166 887.114,806.176C883.603,809.45 879.368,812.832 877.704,813.693C873.208,816.018 864.819,815.085 856.982,811.389C851.208,808.665 846.865,804.682 817.236,774.936C798.941,756.568 783.217,740.416 782.294,739.041C781.371,737.666 780.299,736.316 779.911,736.041C778.488,735.031 777.125,727.447 777.802,724.309C778.613,720.552 785.813,711.041 787.845,711.041C789.52,711.041 795.271,705.036 798.874,699.525C802.504,693.973 807.349,687.609 808.25,687.208C808.663,687.024 809,686.09 809,685.131C809,684.172 812.399,680.388 816.553,676.721C825.416,668.899 829.839,663.371 833.604,655.413C835.266,651.9 838.956,646.988 843,642.903C849.699,636.138 854.075,631.01 857.176,626.294C858.098,624.892 862.189,620.301 866.268,616.091C871.356,610.84 874.265,606.883 875.535,603.489C877.626,597.898 881.534,591.087 883.596,589.441C889.14,585.014 898,576.494 898,575.589C898,574.983 898.787,573.774 899.75,572.902C900.712,572.03 904.402,568.217 907.948,564.43C911.494,560.642 919.861,551.898 926.541,544.998C936.872,534.327 947,520.915 947,517.904C947,517.483 950.451,513.501 954.67,509.057C958.888,504.612 963.711,499.078 965.387,496.759C967.063,494.44 969.011,492.183 969.717,491.743C970.423,491.303 971,490.475 971,489.904C971,489.332 974.331,485.513 978.401,481.416C982.993,476.794 986.802,471.855 988.436,468.403C991.643,461.629 996.873,455.174 1003.38,449.956C1009.44,445.101 1014.52,444.674 1020.22,448.542C1022.24,449.917 1024.17,451.042 1024.51,451.042C1027.25,451.042 1045,470.771 1045,473.823C1045,474.405 1047.16,477.28 1049.79,480.212C1056.12,487.259 1061,493.601 1061,494.79C1061,495.317 1068.02,502.889 1076.59,511.616C1085.16,520.342 1092.82,528.733 1093.62,530.262C1094.41,531.791 1095.38,533.052 1095.78,533.065C1096.17,533.078 1097.83,534.878 1099.44,537.065C1101.06,539.252 1102.91,541.042 1103.56,541.042C1105.51,541.042 1114.09,551.225 1116.21,556.042C1119.16,562.782 1118.38,577.41 1114.64,585.042C1110.58,593.344 1109.79,594.518 1103.92,600.802C1100.94,603.995 1096.58,609.177 1094.23,612.317C1091.87,615.456 1080.22,627.816 1068.34,639.784C1048.33,659.929 1045.06,663.824 1035.63,678.82C1033.97,681.454 1030.36,684.796 1026.22,687.52C1022.52,689.953 1018.54,692.784 1017.37,693.811C1015.06,695.829 1005.7,714.629 1006.22,716.198C1006.39,716.723 1008.55,715.786 1011.02,714.116C1013.48,712.446 1016.03,711.071 1016.68,711.061C1017.33,711.051 1018.45,710.459 1019.18,709.746C1022.41,706.576 1034.57,697.938 1036.48,697.46C1042.51,695.946 1047.13,701.685 1047.32,710.936C1047.42,716.178 1045.59,725.281 1043.98,727.543C1042.12,730.146 1040.96,736.666 1040.16,749.064L1039.3,762.585L1033.65,774.198C1030.54,780.585 1028,786.976 1028,788.399C1028,791.255 1024.48,799.347 1020.53,805.544C1015.81,812.975 1014.77,816.17 1015.2,822.012C1015.42,825.055 1016.4,829.119 1017.38,831.044C1020.23,836.661 1023,844.37 1023,846.672C1023,847.843 1022.3,850.486 1021.44,852.547C1020.58,854.608 1019.22,861.3 1018.42,867.419C1017.62,873.538 1016.56,879.894 1016.07,881.544C1015.57,883.194 1014.86,886.794 1014.49,889.544C1013.59,896.333 1011.53,903.857 1009.48,907.863C1008.48,909.828 1007.44,915.338 1006.94,921.363C1006.47,926.962 1005.62,933.116 1005.04,935.037C1004.47,936.958 1004,939.658 1003.99,941.037C1003.99,942.416 1002.19,947.369 1000,952.044C996.999,958.459 996.02,961.801 996.012,965.668C996,971.479 994.281,977.041 990.754,982.679C987.622,987.685 986.219,991.874 984.966,999.967C983.985,1006.3 980.84,1018.69 978.818,1024.19C978.282,1025.65 974.505,1030.21 970.423,1034.33C966.341,1038.45 963.002,1042.3 963.002,1042.88C963.002,1043.47 962.414,1044.3 961.696,1044.74C960.979,1045.18 959.093,1047.34 957.505,1049.54C955.918,1051.74 948.452,1059.84 940.912,1067.54C926.967,1081.79 925.022,1084.79 925.006,1092.11C924.991,1099.22 921.986,1105.08 914.455,1112.68C910.372,1116.81 906.252,1121.5 905.3,1123.11C904.348,1124.72 903.233,1126.04 902.821,1126.04C902.409,1126.04 900.983,1127.65 899.65,1129.61C898.318,1131.57 895.876,1133.93 894.224,1134.86C890.272,1137.08 883.182,1145.44 882.366,1148.85C882.011,1150.33 879.984,1155.12 877.861,1159.49L874,1167.45L873.993,1208.49C873.987,1246.03 873.816,1250.25 871.993,1257.86C870.131,1265.62 870,1269.68 870,1319.59C870,1365.17 869.759,1374.2 868.356,1381.16C866.831,1388.73 866.831,1389.93 868.363,1397.93C869.775,1405.3 870.006,1414.36 869.963,1460.54C869.936,1490.24 869.525,1516.34 869.051,1518.54C868.578,1520.74 866.97,1525.69 865.479,1529.54C862.897,1536.21 862.746,1537.59 862.295,1558.54C861.89,1577.38 861.55,1581.12 859.932,1584.57C856.356,1592.17 880.684,1591.53 593.002,1591.68C450.822,1591.76 333.602,1591.63 332.502,1591.4L332.5,1591.4ZM746.91,711.16C743.599,710.469 738.362,707.42 735.176,704.327C734.449,703.621 733.29,703.044 732.601,703.044C731.911,703.044 728.681,700.973 725.422,698.442C717.004,691.902 715.03,691.085 705.231,690.079C695.597,689.089 691.485,687.799 685.498,683.884C668.496,672.768 665.6,671.26 660.99,671.12C657.77,671.022 650.018,666.914 642.919,661.542C639.851,659.221 635.126,656.202 632.419,654.835C629.713,653.468 625.273,650.93 622.553,649.196C619.832,647.463 617.002,646.044 616.263,646.044C613.957,646.044 607.632,642.394 603.707,638.799C599.162,634.636 597.634,630.111 599.026,624.94C600.118,620.883 607.301,610.538 611.154,607.47C612.485,606.41 614.189,603.969 614.942,602.044C618.628,592.607 623.252,584.19 626.452,581.089C628.402,579.198 629.998,577.146 629.998,576.529C629.998,575.912 633.598,570.518 637.998,564.544C642.398,558.57 645.998,553.12 645.998,552.434C645.998,551.748 646.588,550.592 647.31,549.865C653.511,543.623 662.396,532.981 663.443,530.544C664.152,528.894 666.029,526.108 667.614,524.352C673.371,517.979 675.291,514.796 677.412,508.107C678.661,504.166 680.928,499.749 682.787,497.631C684.555,495.618 687.077,491.849 688.391,489.257C689.706,486.665 691.73,483.687 692.89,482.639C694.049,481.591 694.998,480.182 694.998,479.508C694.998,478.833 696.557,477.092 698.462,475.639C700.367,474.186 702.572,471.545 703.362,469.77C704.152,467.996 706.293,463.169 708.119,459.044C709.946,454.919 711.678,451.319 711.969,451.044C714.364,448.78 719.998,440.935 719.998,439.865C719.998,439.127 721.543,436.734 723.432,434.549C726.663,430.809 731.041,421.256 732.6,414.545C732.983,412.895 733.904,410.657 734.647,409.572C735.39,408.487 735.998,406.995 735.998,406.255C735.998,405.515 737.46,403.464 739.248,401.697C745.014,395.996 749.902,389.876 752.862,384.649C754.452,381.842 756.708,378.687 757.875,377.64C759.042,376.592 759.997,375.271 759.997,374.704C759.997,374.137 763.035,369.237 766.747,363.815C770.46,358.393 774.265,352.551 775.203,350.834C776.141,349.116 778.69,345.873 780.868,343.628C784.714,339.662 789.811,332.131 792.09,327.045C792.706,325.67 793.589,323.87 794.05,323.045C796.221,319.167 800.997,308.714 800.997,307.842C800.997,307.303 802.589,305.003 804.534,302.731C806.479,300.458 808.3,297.462 808.58,296.072C810.048,288.775 811.401,285.708 814.533,282.576C819.254,277.855 824.53,276.516 830.176,278.604C832.552,279.483 836.072,280.562 837.997,281.001C844.403,282.464 849.127,285.124 856.846,291.616C860.299,294.521 878.82,304.087 883.812,305.545C885.085,305.917 891.079,311.073 897.132,317.002C903.184,322.932 909.343,328.396 910.817,329.145C914.496,331.016 922.589,339.186 923.45,341.899C924.101,343.951 928.945,347.69 934.997,350.812C940.898,353.856 942.679,355.273 949.639,362.463C953.676,366.634 957.278,370.046 957.644,370.046C958.009,370.046 959.7,371.106 961.402,372.401C963.104,373.697 966.297,375.676 968.497,376.798C973.29,379.244 979.997,386.235 979.997,388.786C979.997,389.791 981.572,393.058 983.497,396.046C987.693,402.559 988.179,406.027 985.812,412.546C984.44,416.325 977.435,430.566 974.992,434.546C973.979,436.196 972.183,440.134 971.001,443.297C969.819,446.46 968.317,449.61 967.662,450.297C965.523,452.54 962.997,456.944 962.997,458.427C962.997,459.226 962.63,460.029 962.181,460.213C959.547,461.289 951.923,472.731 949.55,479.167C948.054,483.225 946.385,487.73 945.841,489.178C945.297,490.626 943.535,493.072 941.925,494.615C940.315,496.157 938.997,497.737 938.997,498.125C938.997,498.513 936.595,501.241 933.66,504.188C930.724,507.134 925.759,513 922.626,517.224C919.492,521.447 916.594,525.047 916.185,525.224C914.594,525.912 905.998,537.312 905.998,538.733C905.998,540.276 903.065,544.991 899.894,548.545C892.333,557.021 889.998,559.895 889.998,560.724C889.998,561.25 884.784,567.011 878.41,573.527C872.037,580.044 866.403,586.314 865.89,587.46C865.377,588.607 863.625,591.57 861.998,594.045C860.37,596.52 858.623,599.445 858.116,600.545C857.609,601.645 853.863,605.925 849.791,610.056C843.938,615.994 841.354,619.652 837.443,627.534C834.723,633.016 831.373,638.478 829.998,639.671C825.723,643.38 823.129,645.48 820.567,647.305C819.21,648.272 817.513,650.127 816.798,651.428C811.861,660.406 789.427,687.046 786.804,687.046C785.017,687.046 777.341,694.297 769.998,702.922C767.523,705.829 764.331,708.821 762.905,709.571C759.578,711.321 751.519,712.123 746.911,711.162L746.91,711.16ZM512.59,635.538C510.439,634.263 508.279,632.506 507.79,631.632C507.302,630.759 506.362,630.036 505.701,630.025C505.041,630.015 502.701,628.435 500.501,626.514C498.301,624.594 495.601,622.742 494.501,622.4C492.41,621.749 484.745,616.113 484.168,614.802C483.985,614.385 483.186,614.044 482.394,614.044C481.601,614.044 478.654,612.463 475.844,610.53C473.034,608.597 469.558,606.757 468.118,606.441C459.442,604.537 444.993,598.352 442.501,595.477C441.951,594.842 439.398,592.912 436.827,591.188C431.194,587.41 428.001,583.559 428.001,580.545C428.001,578.077 431.521,573.045 433.247,573.045C433.853,573.045 437.983,571.292 442.425,569.149C446.867,567.007 453.758,564.258 457.738,563.041C461.718,561.825 469.78,558.365 475.654,555.353C484.59,550.77 487.572,549.745 493.918,549.072C499.123,548.521 503.622,547.261 508.261,545.058C514.677,542.011 515.843,541.809 531.261,541.067C547.572,540.282 550.276,539.758 559.502,535.594C565.305,532.975 571.879,531.424 580.949,530.534C584.495,530.186 590.085,528.808 593.371,527.473C602.645,523.704 608.005,524.217 610.539,529.116C612.589,533.081 612.383,535.347 609.379,541.859C607.937,544.987 606.376,548.846 605.909,550.435C605.443,552.025 603.36,555.883 601.281,559.009C598.344,563.426 596.276,565.289 592.002,567.368C585.889,570.343 578.33,573.009 575.945,573.031C574.489,573.044 565.002,584.85 565.002,586.648C565.002,587.387 557.94,602.381 555.866,606.046C552.39,612.188 549,619.201 548.993,620.267C548.977,622.361 533.904,635.372 529.595,637.01C524.914,638.789 516.907,638.097 512.591,635.539L512.59,635.538ZM642.53,470.668C639.709,467.847 639.208,463.055 641.104,457.043C641.71,455.122 642.577,446.8 643.031,438.55C643.827,424.088 645.692,415.539 648.893,411.681C650.742,409.454 655.003,390.905 654.978,385.19C654.939,375.893 653.619,372.244 648.363,366.908C645.731,364.236 643.13,362.049 642.582,362.049C639.256,362.049 618.759,353.224 614.41,349.919C611.609,347.791 608.787,346.05 608.139,346.05C606.969,346.05 598.971,341.193 597.993,339.888C597.712,339.514 596.137,338.903 594.493,338.53C585.4,336.467 574.033,331.322 563.503,324.504C552.461,317.354 551.93,317.12 543.221,315.578C532.484,313.677 530.474,312.717 527.356,308.007C522.463,300.613 523.999,289.307 531.14,280.164C532.164,278.853 533.003,277.024 533.003,276.101C533.003,273.78 537.466,264.739 539.408,263.127C540.285,262.4 541.003,261.267 541.003,260.611C541.003,259.954 542.465,258.035 544.253,256.346C549.842,251.065 553.184,246.711 555.227,242.049C559.875,231.438 566.562,219.477 570.422,214.871C576.257,207.906 578.492,204.95 579.964,202.253C580.775,200.766 583.141,196.818 585.221,193.48C587.301,190.141 589.003,186.738 589.003,185.918C589.003,184.134 592.704,176.167 594.516,174.05C595.222,173.225 597.231,169.85 598.981,166.55C600.73,163.25 602.732,160.1 603.429,159.55C604.125,159 605.503,156.975 606.489,155.05C607.475,153.125 608.621,151.325 609.035,151.05C609.992,150.414 616.003,138.615 616.003,137.372C616.003,136.86 617.524,134.968 619.382,133.166C621.83,130.793 623.965,129.753 627.132,129.39C633.509,128.659 636.792,127.154 639.108,123.902C641.979,119.87 646.416,117.768 650.326,118.589C652.074,118.955 656.428,120.761 660.003,122.601C663.578,124.441 668.59,126.215 671.14,126.542C675.787,127.139 685.75,132.419 693.165,138.215C695.179,139.789 698.554,141.794 700.665,142.67C702.776,143.545 706.978,145.746 710.003,147.56C713.028,149.374 717.27,151.161 719.43,151.532C726.196,152.693 750.465,165.234 751.828,168.273C752.007,168.671 755.382,171.336 759.328,174.195C763.275,177.054 770.954,183.816 776.393,189.221C781.832,194.626 786.515,199.049 786.799,199.049C787.083,199.049 788.708,200.11 790.409,201.407C792.111,202.704 795.754,204.923 798.504,206.338C801.254,207.752 805.69,210.741 808.363,212.98C811.035,215.218 813.612,217.049 814.089,217.049C815.41,217.049 819.006,225.083 818.985,227.987C818.932,235.403 814.411,254.394 811.207,260.661C809.361,264.271 808.16,269.538 806.36,281.911C806.091,283.76 804.776,286.368 803.438,287.706C802.099,289.045 801.004,290.341 801.004,290.586C801.004,290.831 799.506,292.994 797.675,295.393C795.845,297.791 793.775,301.794 793.077,304.289C791.794,308.87 787.251,315.218 780.01,322.549C776.4,326.203 768.004,340.879 768.004,343.534C768.004,344.147 764.066,348.938 759.254,354.18C751.932,362.155 749.957,365.053 747.156,371.938C744.689,377.999 742.114,382.1 737.374,387.513C733.836,391.554 730.28,395.114 729.472,395.424C728.664,395.734 728.004,396.523 728.004,397.178C728.004,397.832 726.204,400.752 724.004,403.666C721.804,406.58 720.004,409.396 720.004,409.924C720.004,410.451 719.66,411.033 719.241,411.217C718.119,411.707 711.664,421.108 710.258,424.3C709.592,425.812 708.699,427.057 708.275,427.066C707.851,427.074 705.929,428.484 704.004,430.199C702.079,431.913 698.935,433.982 697.017,434.795C695.1,435.608 688.125,441.57 681.517,448.042C666.096,463.148 662.628,466.07 656.359,469.242C648.202,473.369 645.509,473.646 642.531,470.669L642.53,470.668ZM474.5,292.338C472.08,291.754 466.95,289.635 461.361,286.91C459.084,285.8 455.446,284.654 453.276,284.363C450.419,283.98 447.62,282.386 443.133,278.588C436.458,272.938 430.28,270.581 414.096,267.512C404.624,265.715 400.433,264.071 393.607,259.474C390.813,257.593 388.121,256.053 387.624,256.053C387.127,256.053 386.221,255.408 385.611,254.62C383.7,252.154 374.853,248.053 371.441,248.053C366.996,248.053 356.845,244.79 353.188,242.187C351.54,241.013 349.731,240.053 349.167,240.053C348.604,240.053 347.506,239.416 346.728,238.638C345.95,237.86 342.205,235.325 338.407,233.005C334.608,230.685 330.228,227.722 328.673,226.42C327.119,225.118 324.869,224.046 323.673,224.037C320.103,224.01 313.84,219.796 311.808,216.053C310.365,213.394 310.004,211.112 310.307,206.553C310.824,198.754 312.809,193.856 317.334,189.223C319.35,187.158 321,185.121 321,184.695C321,183.551 326.028,176.894 328.835,174.321C330.174,173.093 333.423,170.707 336.054,169.018C341.522,165.509 342.621,164.029 349.21,151.3C352.261,145.406 354,140.774 354,138.539C354,135.048 357.563,126.053 358.946,126.053C359.345,126.053 362.315,120.766 365.547,114.303C368.779,107.841 372.392,101.781 373.575,100.838C374.759,99.895 377.351,95.845 379.335,91.838C383.525,83.377 385.345,80.748 393.5,71.372C396.8,67.578 400.4,63.165 401.5,61.564C402.6,59.964 405.187,56.873 407.25,54.695C409.312,52.517 411,50.35 411,49.879C411,49.408 412.462,46.529 414.25,43.481C416.037,40.433 418.175,36.648 419,35.07C420.839,31.553 430.097,21.054 431.36,21.054C431.864,21.054 434.168,19.366 436.48,17.304C450.412,4.876 452.141,4.054 464.366,4.054C474.905,4.054 478.654,5.344 482.733,10.375C485.156,13.364 491.088,16.391 499.999,19.186C504.124,20.48 508.077,22.088 508.785,22.761C509.492,23.433 511.405,24.771 513.035,25.734C514.665,26.697 515.999,27.838 515.999,28.269C515.999,28.701 516.787,29.054 517.752,29.054C518.716,29.054 521.754,30.653 524.502,32.607C527.25,34.562 531.468,37.145 533.875,38.348C536.282,39.55 539.207,41.543 540.375,42.777C541.543,44.01 543.196,45.027 544.049,45.036C544.901,45.046 546.026,45.468 546.549,45.974C547.981,47.362 559.277,53.054 560.599,53.054C562.112,53.054 572.999,64.932 572.999,66.582C572.999,67.282 574.461,68.729 576.249,69.796C578.036,70.863 581.029,73.045 582.899,74.644C591.512,82.012 597.458,87.506 600.21,90.641C601.858,92.518 603.759,94.053 604.436,94.053C605.112,94.053 607.54,95.784 609.832,97.899C613.734,101.502 613.998,102.089 613.993,107.149C613.988,112.394 613.512,113.583 608.743,120.26C607.777,121.612 605.452,127.016 603.575,132.267C601.698,137.52 599.743,142.657 599.23,143.684C591.856,158.449 591.533,158.964 585.248,166.001C582.91,168.619 580.998,171.221 580.998,171.784C580.998,172.347 580.337,173.356 579.53,174.026C577.661,175.576 573.467,183.048 572.66,186.262C572.122,188.406 570.543,191.434 565.732,199.552C565.08,200.652 562.848,204.283 560.772,207.622C558.696,210.96 556.998,214.028 556.998,214.439C556.998,214.85 554.973,217.673 552.498,220.711C550.023,223.749 547.989,226.532 547.979,226.894C547.968,227.256 546.393,229.347 544.479,231.541C542.564,233.735 540.998,236.066 540.998,236.72C540.998,237.375 539.198,240.621 536.998,243.933C534.798,247.245 532.998,250.397 532.998,250.936C532.998,251.476 530.973,253.577 528.498,255.606C526.023,257.634 523.998,259.888 523.998,260.616C523.998,261.343 523.163,262.527 522.142,263.245C520.137,264.656 516.656,271.011 515.674,275.052C515.34,276.427 513.205,280.021 510.93,283.039C505.03,290.864 499.745,292.997 486.498,292.896C480.998,292.854 475.598,292.603 474.498,292.338L474.5,292.338Z" style="fill:white;fill-rule:nonzero;"/>
            </g>
        </g>
    </g>
    <g transform="matrix(0.667902,0,0,0.372227,173.748,319.084)">
        <path d="M1000,0L1000,600L0,600L0,0C0,0 325.649,29.326 488.473,29.326C655.14,29.326 1000,0 1000,0Z" style="fill:rgb(8,6,5);"/>
    </g>
    <g transform="matrix(1,0,0,1,-83.7225,202.925)">
        <g transform="matrix(200,0,0,200,924.822,291.158)">
        </g>
        <text x="242.622px" y="291.158px" style="font-family:'Sunflower-Bold', 'Sunflower';font-weight:700;font-size:200px;fill:white;">MOLIPE</text>
    </g>
</svg>
